<svg xmlns="http://www.w3.org/2000/svg" xml:space="preserve" width="2000" height="1500" data-id="lg_7Z7veRlBsldJ6MYGHA" data-version="1" viewBox="0 0 2000 1500"><path fill="#101d25" stroke="transparent" d="M0 0h2000v1500H0z"/><g data-padding="20"><g transform="translate(-1006.757 -727.657)scale(1.87346)"><rect width="173.725" height="534.762" x="520.429" y="210.72" fill="none" rx="0" ry="0" transform="rotate(-8.1 3041.995 -2698.929)"/><path fill="#61d69b" d="m1071.499 937.033-40.006-281.11-53.887 7.67-6.667-46.847 159.304-22.673 6.668 46.848-53.887 7.67 40.007 281.107Z"/><rect width="173.725" height="534.762" x="520.429" y="210.72" fill="none" rx="0" ry="0" transform="rotate(-8.1 3023.61 -2585.528)"/><path fill="#2e4350" d="m1055.429 935.594-40.007-281.107-53.887 7.67-6.667-46.85 159.304-22.671 6.668 46.848-53.887 7.669 40.007 281.107Z"/></g><path fill="transparent" stroke="transparent" stroke-width="2.027" d="M732.432 187.5h535.136v1125H732.432z"/></g></svg>
